<svg xmlns="http://www.w3.org/2000/svg" viewBox="0 0 32 32"><g fill="none" fill-rule="evenodd"><polygon fill="#777FBA" points="0 20.657 9.021 20.657 9.021 11.637 0 11.637"/><polygon fill="#009359" points="20.384 20.658 11.364 20.658 11.364 16.486 20.384 11.342"/><polygon fill="#ED6900" points="11.363 0 11.363 9.315 20.384 9.315 20.384 5.144"/><polygon fill="#DBB5D5" points="9.02 0 0 5.144 0 9.315 9.02 9.315"/><polygon fill="#FAB400" points="22.747 20.658 31.768 20.658 31.768 16.486 22.747 11.342"/><polygon fill="#003D7F" points="0 32 9.021 32 9.021 22.979 0 22.979"/><polygon fill="#0091B6" points="11.363 32 20.384 32 20.384 22.979 11.363 22.979"/><polygon fill="#30B6B9" points="22.747 32 31.768 32 31.768 22.979 22.747 22.979"/></g></svg>